<?xml version="1.0" encoding="UTF-8" standalone="no"?>
<svg
   id="Layer_1"
   data-name="Layer 1"
   viewBox="0 0 401.98807 150"
   version="1.1"
   sodipodi:docname="Logo FMS-01.svg"
   width="401.98807"
   height="150"
   inkscape:version="1.2.2 (732a01da63, 2022-12-09)"
   xmlns:inkscape="http://www.inkscape.org/namespaces/inkscape"
   xmlns:sodipodi="http://sodipodi.sourceforge.net/DTD/sodipodi-0.dtd"
   xmlns="http://www.w3.org/2000/svg"
   xmlns:svg="http://www.w3.org/2000/svg"
   xmlns:rdf="http://www.w3.org/1999/02/22-rdf-syntax-ns#"
   xmlns:cc="http://creativecommons.org/ns#"
   xmlns:dc="http://purl.org/dc/elements/1.1/">
  <sodipodi:namedview
     id="namedview397"
     pagecolor="#505050"
     bordercolor="#eeeeee"
     borderopacity="1"
     inkscape:showpageshadow="0"
     inkscape:pageopacity="0"
     inkscape:pagecheckerboard="0"
     inkscape:deskcolor="#505050"
     showgrid="false"
     inkscape:zoom="0.47353425"
     inkscape:cx="238.6311"
     inkscape:cy="81.303518"
     inkscape:window-width="1920"
     inkscape:window-height="1013"
     inkscape:window-x="-9"
     inkscape:window-y="-9"
     inkscape:window-maximized="1"
     inkscape:current-layer="Layer_1" />
  <defs
     id="defs4">
    <style
       id="style2">.cls-1{fill:#fff200;}.cls-2,.cls-6{font-size:351.17px;font-family:Championship;}.cls-2{fill:#231f20;}.cls-3,.cls-6,.cls-9{fill:#00a651;}.cls-10,.cls-11,.cls-12,.cls-13,.cls-14,.cls-15,.cls-16,.cls-4,.cls-7{fill:#fcd20b;}.cls-5{fill:none;}.cls-7{font-size:24.3px;}.cls-7,.cls-9{font-family:Montserrat-Bold, Montserrat;font-weight:700;}.cls-8{letter-spacing:-0.02em;}.cls-9{font-size:39.59px;}.cls-10{letter-spacing:0em;}.cls-11{letter-spacing:0.01em;}.cls-12{letter-spacing:0.01em;}.cls-13{letter-spacing:0em;}.cls-14{letter-spacing:-0.01em;}.cls-15{letter-spacing:-0.01em;}.cls-16{letter-spacing:-0.02em;}.cls-17{opacity:0.03;}</style>
  </defs>
  <title
     id="title6">Logo FMS</title>
  <g
     id="g1266"
     transform="matrix(0.40584415,0,0,0.40584415,-5.6905152,-10.896914)">
    <rect
       class="cls-1"
       x="116.97"
       y="264.66"
       width="132.72"
       height="13.2"
       id="rect8"
       style="fill:#00a651;fill-opacity:1" />
    <rect
       class="cls-1"
       x="116.97"
       y="242.53999"
       width="132.72"
       height="14.4"
       id="rect10"
       style="fill:#00a651;fill-opacity:1" />
    <rect
       class="cls-1"
       x="116.97"
       y="121.48"
       width="163.75"
       height="31.549999"
       id="rect12"
       style="fill:#00a651;fill-opacity:1" />
    <rect
       class="cls-1"
       x="116.97"
       y="220.42"
       width="132.72"
       height="15.77"
       id="rect14"
       style="fill:#00a651;fill-opacity:1" />
    <rect
       class="cls-1"
       x="116.97"
       y="286.60999"
       width="59.330002"
       height="12"
       id="rect16"
       style="fill:#00a651;fill-opacity:1" />
    <rect
       class="cls-1"
       x="116.97"
       y="308.73001"
       width="59.330002"
       height="10.63"
       id="rect18"
       style="fill:#00a651;fill-opacity:1" />
    <rect
       class="cls-1"
       x="116.97"
       y="154.23"
       width="163.75"
       height="19.549999"
       id="rect20"
       style="fill:#00a651;fill-opacity:1" />
    <polygon
       class="cls-1"
       points="116.97,194.53 176.3,194.53 176.3,180.81 280.73,180.81 280.73,176.35 116.97,176.35 "
       id="polygon22"
       style="fill:#00a651;fill-opacity:1" />
    <rect
       class="cls-1"
       x="116.97"
       y="330.85001"
       width="59.330002"
       height="9.4300003"
       id="rect24"
       style="fill:#00a651;fill-opacity:1" />
    <rect
       class="cls-1"
       x="116.97"
       y="374.91"
       width="59.330002"
       height="6.8600001"
       id="rect26"
       style="fill:#00a651;fill-opacity:1" />
    <rect
       class="cls-1"
       x="116.97"
       y="198.47"
       width="59.330002"
       height="16.98"
       id="rect28"
       style="fill:#00a651;fill-opacity:1" />
    <rect
       class="cls-1"
       x="116.97"
       y="352.79001"
       width="59.330002"
       height="8.2299995"
       id="rect30"
       style="fill:#00a651;fill-opacity:1" />
    <rect
       class="cls-1"
       x="296.16"
       y="352.79001"
       width="59.84"
       height="8.2299995"
       id="rect32" />
    <rect
       class="cls-1"
       x="296.16"
       y="286.60999"
       width="59.84"
       height="12"
       id="rect34" />
    <rect
       class="cls-1"
       x="296.16"
       y="374.91"
       width="59.84"
       height="6.8600001"
       id="rect36" />
    <rect
       class="cls-1"
       x="296.16"
       y="308.73001"
       width="59.84"
       height="10.63"
       id="rect38" />
    <rect
       class="cls-1"
       x="296.16"
       y="330.85001"
       width="59.84"
       height="9.4300003"
       id="rect40" />
    <polygon
       class="cls-1"
       points="296.16,236.2 411.04,236.2 403.5,220.42 296.16,220.42 "
       id="polygon42" />
    <polygon
       class="cls-1"
       points="296.16,215.45 401.1,215.45 392.87,198.47 296.16,198.47 "
       id="polygon44" />
    <polygon
       class="cls-1"
       points="296.16,153.03 370.92,153.03 356.17,122.51 296.16,122.51 "
       id="polygon46" />
    <polygon
       class="cls-1"
       points="296.16,194.53 390.98,194.53 382.24,176.35 296.16,176.35 "
       id="polygon48" />
    <polygon
       class="cls-1"
       points="296.16,173.78 380.87,173.78 371.43,154.23 296.16,154.23 "
       id="polygon50" />
    <rect
       class="cls-1"
       x="296.16"
       y="242.53999"
       width="235.42999"
       height="14.4"
       id="rect52" />
    <polygon
       class="cls-1"
       points="531.59,220.42 424.42,220.42 416.7,236.2 531.59,236.2 "
       id="polygon54" />
    <polygon
       class="cls-1"
       points="531.59,198.47 434.88,198.47 426.82,215.45 531.59,215.45 "
       id="polygon56" />
    <polygon
       class="cls-1"
       points="472.77,277.86 531.59,277.86 531.59,264.66 296.16,264.66 296.16,277.86 356,277.86 356,266.55 361.49,277.86 467.46,277.86 472.77,266.89 "
       id="polygon58" />
    <rect
       class="cls-1"
       x="472.76999"
       y="286.60999"
       width="58.810001"
       height="12"
       id="rect60" />
    <polygon
       class="cls-1"
       points="531.59,122.51 471.57,122.51 456.82,153.03 531.59,153.03 "
       id="polygon62" />
    <polygon
       class="cls-1"
       points="531.59,176.35 445.51,176.35 436.76,194.53 531.59,194.53 "
       id="polygon64" />
    <polygon
       class="cls-1"
       points="531.59,154.23 456.14,154.23 446.71,173.78 531.59,173.78 "
       id="polygon66" />
    <rect
       class="cls-1"
       x="472.76999"
       y="352.79001"
       width="58.810001"
       height="8.2299995"
       id="rect68" />
    <polygon
       class="cls-1"
       points="452.54,308.73 376.41,308.73 381.55,319.36 447.39,319.36 "
       id="polygon70" />
    <polygon
       class="cls-1"
       points="441.91,330.85 387.04,330.85 391.5,340.28 437.28,340.28 "
       id="polygon72" />
    <polygon
       class="cls-1"
       points="431.28,352.79 397.5,352.79 401.44,361.02 427.33,361.02 "
       id="polygon74" />
    <rect
       class="cls-1"
       x="472.76999"
       y="308.73001"
       width="58.810001"
       height="10.63"
       id="rect76" />
    <polygon
       class="cls-1"
       points="463.17,286.61 365.6,286.61 371.43,298.61 457.51,298.61 "
       id="polygon78" />
    <rect
       class="cls-1"
       x="472.76999"
       y="374.91"
       width="58.810001"
       height="6.8600001"
       id="rect80" />
    <rect
       class="cls-1"
       x="472.76999"
       y="330.85001"
       width="58.810001"
       height="9.4300003"
       id="rect82" />
    <polygon
       class="cls-1"
       points="420.64,374.91 408.13,374.91 411.56,381.77 417.39,381.77 "
       id="polygon84" />
    <path
       class="cls-1"
       d="M 607.2,213.9 V 198.47 H 547 v 17 h 60.2 z"
       id="path86" />
    <path
       class="cls-1"
       d="m 607.2,194.19 q -0.35,-12.69 12.69,-12.69 h 20.58 q 12.35,0 12.69,10.8 v 2.23 h 33.64 v 0.08 h 49.43 V 176.3 H 686.8 v 0 H 547 v 18.18 h 60.2 z"
       id="path88" />
    <polygon
       class="cls-1"
       points="806.21,176.3 809.93,194.61 821.7,194.61 821.7,176.3 "
       id="polygon90" />
    <path
       class="cls-1"
       d="M 703.4,242.54 H 547.87 a 53.13,53.13 0 0 0 4.12,14.4 H 710.6 v 0 h 241 V 242.55 H 703.4 Z"
       id="path92" />
    <path
       class="cls-1"
       d="m 547.19,308.73 v 10.63 h 60.36 a 15.14,15.14 0 0 1 -0.35,-3.43 v -7.2 z"
       id="path94" />
    <path
       class="cls-1"
       d="m 787,142.66 h 12.36 l 2.1,10.36 H 812.4 V 126.53 H 686.8 v 0.58 q -11.92,-5.46 -29.18,-5.63 h -55 q -41.84,0.34 -52.12,31.55 h 185.73 v -10.37 z"
       id="path96" />
    <path
       class="cls-1"
       d="m 697.22,236.2 -0.28,-0.23 H 874.33 V 224.24 H 655.79 v 0.12 h -36.07 q -7.71,0.18 -10.63,-3.94 H 547 v 11.49 l 0.17,4.29 z"
       id="path98" />
    <path
       class="cls-1"
       d="m 652,361.6 h 104.2 c 0,-0.19 0,-0.38 0,-0.58 a 66.74,66.74 0 0 1 0.52,-8.17 h -46.14 c 0,0 0,0 0,-0.06 H 549.76 a 43.32,43.32 0 0 0 3.09,8.23 H 652 Z"
       id="path100" />
    <path
       class="cls-1"
       d="m 888.92,361 c 0,0.2 0,0.39 0,0.58 h 89 v -8.75 H 888.4 a 66.74,66.74 0 0 1 0.52,8.17 z"
       id="path102" />
    <path
       class="cls-1"
       d="m 710.11,154.33 v -0.1 h -160 A 71.21,71.21 0 0 0 547,173.78 h 139.8 v 0.35 h 49.43 v -19.8 z"
       id="path104" />
    <polygon
       class="cls-1"
       points="801.76,154.33 805.77,174.13 816.09,174.13 816.09,154.33 "
       id="polygon106" />
    <polygon
       class="cls-1"
       points="713.17,215.11 713.17,215.03 827.54,215.03 827.54,198.44 810.71,198.44 812.43,206.96 736.23,206.96 736.23,198.44 686.8,198.44 686.8,198.47 653.16,198.47 653.16,215.11 "
       id="polygon108" />
    <path
       class="cls-1"
       d="M 713.34,277.85 H 988.53 V 264.63 H 655.79 v 0 H 556.11 A 39.65,39.65 0 0 0 571,277.86 h 142.34 z"
       id="path110" />
    <path
       class="cls-1"
       d="M 991.78,286.6 H 648.87 q 4.11,2.75 4.29,8.74 v 3.26 h 2.63 v 0.18 h 143.7 a 66.5,66.5 0 0 1 46.14,0 h 146.15 z"
       id="path112" />
    <path
       class="cls-1"
       d="M 992.64,308.57 H 863.19 a 67,67 0 0 1 11.3,11.16 h 118.15 z"
       id="path114" />
    <path
       class="cls-1"
       d="m 655.79,308.73 h -2.63 V 314 a 18.13,18.13 0 0 1 -0.69,5.32 h 3.32 v 0.37 h 114.84 a 66.66,66.66 0 0 1 11.3,-11.16 H 655.79 Z"
       id="path116" />
    <path
       class="cls-1"
       d="m 881.73,331 a 65.45,65.45 0 0 1 4,9.66 h 115.15 V 331 Z"
       id="path118" />
    <path
       class="cls-1"
       d="M 713.34,330.85 H 547.19 v 3.43 a 51.2,51.2 0 0 0 0.34,6 h 106.2 v 0.38 h 105.66 a 66.51,66.51 0 0 1 4,-9.66 h -50 z"
       id="path120" />
    <path
       class="cls-1"
       d="m 652,374.48 v 0.43 h -88.7 a 47.32,47.32 0 0 0 11.14,6.86 h 111.64 l 0.53,-0.26 h 72.82 a 66,66 0 0 1 -1.87,-7 z"
       id="path122" />
    <rect
       class="cls-1"
       x="116.97"
       y="264.66"
       width="132.72"
       height="13.2"
       id="rect126"
       style="fill:#00a651;fill-opacity:1" />
    <rect
       class="cls-1"
       x="116.97"
       y="242.53999"
       width="132.72"
       height="14.4"
       id="rect128"
       style="fill:#00a651;fill-opacity:1" />
    <rect
       class="cls-1"
       x="116.97"
       y="121.48"
       width="163.75"
       height="31.549999"
       id="rect130"
       style="fill:#00a651;fill-opacity:1" />
    <rect
       class="cls-1"
       x="116.97"
       y="220.42"
       width="132.72"
       height="15.77"
       id="rect132"
       style="fill:#00a651;fill-opacity:1" />
    <rect
       class="cls-1"
       x="116.97"
       y="286.60999"
       width="59.330002"
       height="12"
       id="rect134"
       style="fill:#00a651;fill-opacity:1" />
    <rect
       class="cls-1"
       x="116.97"
       y="308.73001"
       width="59.330002"
       height="10.63"
       id="rect136"
       style="fill:#00a651;fill-opacity:1" />
    <rect
       class="cls-1"
       x="116.97"
       y="154.23"
       width="163.75"
       height="19.549999"
       id="rect138"
       style="fill:#00a651;fill-opacity:1" />
    <polygon
       class="cls-1"
       points="116.97,194.53 176.3,194.53 176.3,180.81 280.73,180.81 280.73,176.35 116.97,176.35 "
       id="polygon140"
       style="fill:#00a651;fill-opacity:1" />
    <rect
       class="cls-1"
       x="116.97"
       y="330.85001"
       width="59.330002"
       height="9.4300003"
       id="rect142"
       style="fill:#00a651;fill-opacity:1" />
    <rect
       class="cls-1"
       x="116.97"
       y="374.91"
       width="59.330002"
       height="6.8600001"
       id="rect144"
       style="fill:#00a651;fill-opacity:1" />
    <rect
       class="cls-1"
       x="116.97"
       y="198.47"
       width="59.330002"
       height="16.98"
       id="rect146"
       style="fill:#00a651;fill-opacity:1" />
    <rect
       class="cls-1"
       x="116.97"
       y="352.79001"
       width="59.330002"
       height="8.2299995"
       id="rect148"
       style="fill:#00a651;fill-opacity:1" />
    <rect
       class="cls-1"
       x="296.16"
       y="352.79001"
       width="59.84"
       height="8.2299995"
       id="rect150" />
    <rect
       class="cls-1"
       x="296.16"
       y="286.60999"
       width="59.84"
       height="12"
       id="rect152" />
    <rect
       class="cls-1"
       x="296.16"
       y="374.91"
       width="59.84"
       height="6.8600001"
       id="rect154" />
    <rect
       class="cls-1"
       x="296.16"
       y="308.73001"
       width="59.84"
       height="10.63"
       id="rect156" />
    <rect
       class="cls-1"
       x="296.16"
       y="330.85001"
       width="59.84"
       height="9.4300003"
       id="rect158" />
    <polygon
       class="cls-1"
       points="296.16,236.2 411.04,236.2 403.5,220.42 296.16,220.42 "
       id="polygon160" />
    <polygon
       class="cls-1"
       points="296.16,215.45 401.1,215.45 392.87,198.47 296.16,198.47 "
       id="polygon162" />
    <polygon
       class="cls-1"
       points="296.16,153.03 370.92,153.03 356.17,122.51 296.16,122.51 "
       id="polygon164" />
    <polygon
       class="cls-1"
       points="296.16,194.53 390.98,194.53 382.24,176.35 296.16,176.35 "
       id="polygon166" />
    <polygon
       class="cls-1"
       points="296.16,173.78 380.87,173.78 371.43,154.23 296.16,154.23 "
       id="polygon168" />
    <rect
       class="cls-1"
       x="296.16"
       y="242.53999"
       width="235.42999"
       height="14.4"
       id="rect170" />
    <polygon
       class="cls-1"
       points="531.59,220.42 424.42,220.42 416.7,236.2 531.59,236.2 "
       id="polygon172" />
    <polygon
       class="cls-1"
       points="531.59,198.47 434.88,198.47 426.82,215.45 531.59,215.45 "
       id="polygon174" />
    <polygon
       class="cls-1"
       points="472.77,277.86 531.59,277.86 531.59,264.66 296.16,264.66 296.16,277.86 356,277.86 356,266.55 361.49,277.86 467.46,277.86 472.77,266.89 "
       id="polygon176" />
    <rect
       class="cls-1"
       x="472.76999"
       y="286.60999"
       width="58.810001"
       height="12"
       id="rect178" />
    <polygon
       class="cls-1"
       points="531.59,122.51 471.57,122.51 456.82,153.03 531.59,153.03 "
       id="polygon180" />
    <polygon
       class="cls-1"
       points="531.59,176.35 445.51,176.35 436.76,194.53 531.59,194.53 "
       id="polygon182" />
    <polygon
       class="cls-1"
       points="531.59,154.23 456.14,154.23 446.71,173.78 531.59,173.78 "
       id="polygon184" />
    <rect
       class="cls-1"
       x="472.76999"
       y="352.79001"
       width="58.810001"
       height="8.2299995"
       id="rect186" />
    <polygon
       class="cls-1"
       points="452.54,308.73 376.41,308.73 381.55,319.36 447.39,319.36 "
       id="polygon188" />
    <polygon
       class="cls-1"
       points="441.91,330.85 387.04,330.85 391.5,340.28 437.28,340.28 "
       id="polygon190" />
    <polygon
       class="cls-1"
       points="431.28,352.79 397.5,352.79 401.44,361.02 427.33,361.02 "
       id="polygon192" />
    <rect
       class="cls-1"
       x="472.76999"
       y="308.73001"
       width="58.810001"
       height="10.63"
       id="rect194" />
    <polygon
       class="cls-1"
       points="463.17,286.61 365.6,286.61 371.43,298.61 457.51,298.61 "
       id="polygon196" />
    <rect
       class="cls-1"
       x="472.76999"
       y="374.91"
       width="58.810001"
       height="6.8600001"
       id="rect198" />
    <rect
       class="cls-1"
       x="472.76999"
       y="330.85001"
       width="58.810001"
       height="9.4300003"
       id="rect200" />
    <polygon
       class="cls-1"
       points="420.64,374.91 408.13,374.91 411.56,381.77 417.39,381.77 "
       id="polygon202" />
    <path
       class="cls-1"
       d="M 607.2,213.9 V 198.47 H 547 v 17 h 60.2 z"
       id="path204" />
    <path
       class="cls-1"
       d="m 607.2,194.19 q -0.35,-12.69 12.69,-12.69 h 20.58 q 12.35,0 12.69,10.8 v 2.23 h 33.64 v 0.08 h 49.43 V 176.3 H 686.8 v 0 H 547 v 18.18 h 60.2 z"
       id="path206" />
    <polygon
       class="cls-1"
       points="806.21,176.3 809.93,194.61 821.7,194.61 821.7,176.3 "
       id="polygon208" />
    <path
       class="cls-1"
       d="M 703.4,242.54 H 547.87 a 53.13,53.13 0 0 0 4.12,14.4 H 710.6 v 0 h 241 V 242.55 H 703.4 Z"
       id="path210" />
    <path
       class="cls-1"
       d="m 547.19,308.73 v 10.63 h 60.36 a 15.14,15.14 0 0 1 -0.35,-3.43 v -7.2 z"
       id="path212" />
    <path
       class="cls-1"
       d="m 787,142.66 h 12.36 l 2.1,10.36 H 812.4 V 126.53 H 686.8 v 0.58 q -11.92,-5.46 -29.18,-5.63 h -55 q -41.84,0.34 -52.12,31.55 h 185.73 v -10.37 z"
       id="path214" />
    <path
       class="cls-1"
       d="m 697.22,236.2 -0.28,-0.23 H 874.33 V 224.24 H 655.79 v 0.12 h -36.07 q -7.71,0.18 -10.63,-3.94 H 547 v 11.49 l 0.17,4.29 z"
       id="path216" />
    <path
       class="cls-1"
       d="m 652,361.6 h 104.2 c 0,-0.19 0,-0.38 0,-0.58 a 66.74,66.74 0 0 1 0.52,-8.17 h -46.14 c 0,0 0,0 0,-0.06 H 549.76 a 43.32,43.32 0 0 0 3.09,8.23 H 652 Z"
       id="path218" />
    <path
       class="cls-1"
       d="m 888.92,361 c 0,0.2 0,0.39 0,0.58 h 89 v -8.75 H 888.4 a 66.74,66.74 0 0 1 0.52,8.17 z"
       id="path220" />
    <path
       class="cls-1"
       d="m 710.11,154.33 v -0.1 h -160 A 71.21,71.21 0 0 0 547,173.78 h 139.8 v 0.35 h 49.43 v -19.8 z"
       id="path222" />
    <polygon
       class="cls-1"
       points="801.76,154.33 805.77,174.13 816.09,174.13 816.09,154.33 "
       id="polygon224" />
    <polygon
       class="cls-1"
       points="713.17,215.11 713.17,215.03 827.54,215.03 827.54,198.44 810.71,198.44 812.43,206.96 736.23,206.96 736.23,198.44 686.8,198.44 686.8,198.47 653.16,198.47 653.16,215.11 "
       id="polygon226" />
    <path
       class="cls-1"
       d="M 713.34,277.85 H 988.53 V 264.63 H 655.79 v 0 H 556.11 A 39.65,39.65 0 0 0 571,277.86 h 142.34 z"
       id="path228" />
    <path
       class="cls-1"
       d="M 991.78,286.6 H 648.87 q 4.11,2.75 4.29,8.74 v 3.26 h 2.63 v 0.18 h 143.7 a 66.5,66.5 0 0 1 46.14,0 h 146.15 z"
       id="path230" />
    <path
       class="cls-1"
       d="M 992.64,308.57 H 863.19 a 67,67 0 0 1 11.3,11.16 h 118.15 z"
       id="path232" />
    <path
       class="cls-1"
       d="m 655.79,308.73 h -2.63 V 314 a 18.13,18.13 0 0 1 -0.69,5.32 h 3.32 v 0.37 h 114.84 a 66.66,66.66 0 0 1 11.3,-11.16 H 655.79 Z"
       id="path234" />
    <path
       class="cls-1"
       d="m 881.73,331 a 65.45,65.45 0 0 1 4,9.66 h 115.15 V 331 Z"
       id="path236" />
    <path
       class="cls-1"
       d="M 713.34,330.85 H 547.19 v 3.43 a 51.2,51.2 0 0 0 0.34,6 h 106.2 v 0.38 h 105.66 a 66.51,66.51 0 0 1 4,-9.66 h -50 z"
       id="path238" />
    <path
       class="cls-1"
       d="m 652,374.48 v 0.43 h -88.7 a 47.32,47.32 0 0 0 11.14,6.86 h 111.64 l 0.53,-0.26 h 72.82 a 66,66 0 0 1 -1.87,-7 z"
       id="path240" />
    <path
       class="cls-3"
       d="m 753.89,26.85 v 9 c 48,0 88.66,5 117.56,14.58 14.27,4.71 25.74,10.5 34.09,17.2 7.93,6.36 13,13.58 15.2,21.46 4.21,15.4 -2.41,33.81 -19.68,54.72 -18,21.76 -46.19,44.69 -83.9,68.15 -78.55,48.87 -188.58,94 -309.81,127.18 -113.94,31.15 -226.24,48.31 -316.22,48.31 -48,0 -88.69,-5 -117.59,-14.58 -14.27,-4.71 -25.74,-10.5 -34.1,-17.2 -7.93,-6.36 -13,-13.58 -15.2,-21.46 -4.2,-15.4 2.41,-33.81 19.68,-54.72 18,-21.76 46.19,-44.69 83.9,-68.15 78.55,-48.87 188.58,-94 309.81,-127.18 C 551.55,53 663.86,35.85 753.86,35.85 v -9 m 0,0 c -87.4,0 -199.56,16.08 -318.6,48.62 -252.36,69 -440.26,185.9 -419.7,261.11 10.87,39.73 77.7,59.87 175.57,59.87 87.39,0 199.55,-16.08 318.59,-48.63 252.36,-69 440.26,-185.89 419.7,-261.1 C 918.56,47 851.72,26.84 753.86,26.85 Z"
       id="path242" />
    <rect
       class="cls-4"
       x="117.1"
       y="264.38"
       width="132.72"
       height="13.2"
       id="rect244"
       style="fill:#00a651;fill-opacity:1" />
    <rect
       class="cls-4"
       x="117.1"
       y="242.25999"
       width="132.72"
       height="14.4"
       id="rect246"
       style="fill:#00a651;fill-opacity:1" />
    <rect
       class="cls-4"
       x="117.1"
       y="121.2"
       width="163.75"
       height="31.549999"
       id="rect248"
       style="fill:#00a651;fill-opacity:1" />
    <rect
       class="cls-4"
       x="117.1"
       y="220.14"
       width="132.72"
       height="15.77"
       id="rect250"
       style="fill:#00a651;fill-opacity:1" />
    <rect
       class="cls-4"
       x="117.1"
       y="286.32999"
       width="59.330002"
       height="12"
       id="rect252"
       style="fill:#00a651;fill-opacity:1" />
    <rect
       class="cls-4"
       x="117.1"
       y="308.45001"
       width="59.330002"
       height="10.63"
       id="rect254"
       style="fill:#00a651;fill-opacity:1" />
    <rect
       class="cls-4"
       x="117.1"
       y="153.95"
       width="163.75"
       height="19.549999"
       id="rect256"
       style="fill:#00a651;fill-opacity:1" />
    <polygon
       class="cls-4"
       points="117.1,194.25 176.43,194.25 176.43,180.53 280.85,180.53 280.85,176.07 117.1,176.07 "
       id="polygon258"
       style="fill:#00a651;fill-opacity:1" />
    <rect
       class="cls-4"
       x="117.1"
       y="330.57001"
       width="59.330002"
       height="9.4300003"
       id="rect260"
       style="fill:#00a651;fill-opacity:1" />
    <rect
       class="cls-4"
       x="117.1"
       y="374.63"
       width="59.330002"
       height="6.8600001"
       id="rect262"
       style="fill:#00a651;fill-opacity:1" />
    <rect
       class="cls-4"
       x="117.1"
       y="198.19"
       width="59.330002"
       height="16.98"
       id="rect264"
       style="fill:#00a651;fill-opacity:1" />
    <rect
       class="cls-4"
       x="117.1"
       y="352.51001"
       width="59.330002"
       height="8.2299995"
       id="rect266"
       style="fill:#00a651;fill-opacity:1" />
    <rect
       class="cls-4"
       x="296.29001"
       y="352.51001"
       width="59.84"
       height="8.2299995"
       id="rect268" />
    <rect
       class="cls-4"
       x="296.29001"
       y="286.32999"
       width="59.84"
       height="12"
       id="rect270" />
    <rect
       class="cls-4"
       x="296.29001"
       y="374.63"
       width="59.84"
       height="6.8600001"
       id="rect272" />
    <rect
       class="cls-4"
       x="296.29001"
       y="308.45001"
       width="59.84"
       height="10.63"
       id="rect274" />
    <rect
       class="cls-4"
       x="296.29001"
       y="330.57001"
       width="59.84"
       height="9.4300003"
       id="rect276" />
    <polygon
       class="cls-4"
       points="296.29,235.92 411.17,235.92 403.62,220.14 296.29,220.14 "
       id="polygon278" />
    <polygon
       class="cls-4"
       points="296.29,215.17 401.22,215.17 392.99,198.19 296.29,198.19 "
       id="polygon280" />
    <polygon
       class="cls-4"
       points="296.29,152.75 371.05,152.75 356.3,122.23 296.29,122.23 "
       id="polygon282" />
    <polygon
       class="cls-4"
       points="296.29,194.25 391.11,194.25 382.36,176.07 296.29,176.07 "
       id="polygon284" />
    <polygon
       class="cls-4"
       points="296.29,173.5 380.99,173.5 371.56,153.95 296.29,153.95 "
       id="polygon286" />
    <rect
       class="cls-4"
       x="296.29001"
       y="242.25999"
       width="235.42999"
       height="14.4"
       id="rect288" />
    <polygon
       class="cls-4"
       points="531.71,220.14 424.54,220.14 416.83,235.92 531.71,235.92 "
       id="polygon290" />
    <polygon
       class="cls-4"
       points="531.71,198.19 435,198.19 426.94,215.17 531.71,215.17 "
       id="polygon292" />
    <polygon
       class="cls-4"
       points="472.9,277.58 531.71,277.58 531.71,264.38 296.29,264.38 296.29,277.58 356.13,277.58 356.13,266.26 361.61,277.58 467.58,277.58 472.9,266.61 "
       id="polygon294" />
    <rect
       class="cls-4"
       x="472.89999"
       y="286.32999"
       width="58.810001"
       height="12"
       id="rect296" />
    <polygon
       class="cls-4"
       points="531.71,122.23 471.7,122.23 456.95,152.75 531.71,152.75 "
       id="polygon298" />
    <polygon
       class="cls-4"
       points="531.71,176.07 445.63,176.07 436.89,194.25 531.71,194.25 "
       id="polygon300" />
    <polygon
       class="cls-4"
       points="531.71,153.95 456.26,153.95 446.83,173.5 531.71,173.5 "
       id="polygon302" />
    <rect
       class="cls-4"
       x="472.89999"
       y="352.51001"
       width="58.810001"
       height="8.2299995"
       id="rect304" />
    <polygon
       class="cls-4"
       points="452.66,308.45 376.53,308.45 381.68,319.08 447.52,319.08 "
       id="polygon306" />
    <polygon
       class="cls-4"
       points="442.03,330.57 387.16,330.57 391.62,340 437.4,340 "
       id="polygon308" />
    <polygon
       class="cls-4"
       points="431.4,352.51 397.62,352.51 401.57,360.74 427.46,360.74 "
       id="polygon310" />
    <rect
       class="cls-4"
       x="472.89999"
       y="308.45001"
       width="58.810001"
       height="10.63"
       id="rect312" />
    <polygon
       class="cls-4"
       points="463.3,286.33 365.73,286.33 371.56,298.33 457.64,298.33 "
       id="polygon314" />
    <rect
       class="cls-4"
       x="472.89999"
       y="374.63"
       width="58.810001"
       height="6.8600001"
       id="rect316" />
    <rect
       class="cls-4"
       x="472.89999"
       y="330.57001"
       width="58.810001"
       height="9.4300003"
       id="rect318" />
    <polygon
       class="cls-4"
       points="420.77,374.63 408.25,374.63 411.68,381.49 417.51,381.49 "
       id="polygon320" />
    <path
       class="cls-4"
       d="m 607.33,213.62 v -15.43 h -60.19 v 17 h 60.19 z"
       id="path322" />
    <path
       class="cls-4"
       d="M 607.33,193.91 Q 607,181.22 620,181.22 h 20.57 q 12.35,0 12.69,10.8 v 2.23 h 33.65 v 0.08 h 49.43 V 176 h -49.41 v 0 H 547.14 v 18.18 h 60.19 z"
       id="path324" />
    <polygon
       class="cls-4"
       points="806.34,176.02 810.05,194.33 821.83,194.33 821.83,176.02 "
       id="polygon326" />
    <path
       class="cls-4"
       d="M 703.52,242.26 H 548 a 52.77,52.77 0 0 0 4.12,14.4 h 158.61 v 0 h 241 V 242.27 H 703.52 Z"
       id="path328" />
    <path
       class="cls-4"
       d="m 547.32,308.45 v 10.63 h 60.35 a 15.76,15.76 0 0 1 -0.34,-3.43 v -7.2 z"
       id="path330" />
    <path
       class="cls-4"
       d="m 787.16,142.38 h 12.35 l 2.11,10.36 h 10.94 V 126.25 H 686.93 v 0.58 c -7.95,-3.64 -17.66,-5.53 -29.19,-5.63 h -55 q -41.84,0.35 -52.13,31.55 h 185.75 v -10.37 z"
       id="path332" />
    <path
       class="cls-4"
       d="m 697.35,235.92 -0.28,-0.23 H 874.46 V 224 H 655.91 v 0.12 h -36.06 q -7.73,0.18 -10.64,-3.94 h -62.07 v 11.49 l 0.18,4.29 z"
       id="path334" />
    <path
       class="cls-4"
       d="m 652.14,361.32 h 104.19 c 0,-0.19 0,-0.38 0,-0.58 a 66.74,66.74 0 0 1 0.52,-8.17 h -46.14 a 0.14,0.14 0 0 1 0,-0.06 H 549.89 a 43.31,43.31 0 0 0 3.08,8.23 h 99.17 z"
       id="path336" />
    <path
       class="cls-4"
       d="m 889.05,360.74 c 0,0.2 0,0.39 0,0.58 h 89 v -8.75 h -89.52 a 66.74,66.74 0 0 1 0.52,8.17 z"
       id="path338" />
    <path
       class="cls-4"
       d="m 710.24,154.05 v -0.1 h -160 a 71.58,71.58 0 0 0 -3.09,19.55 h 139.78 v 0.35 h 49.43 v -19.8 z"
       id="path340" />
    <polygon
       class="cls-4"
       points="801.88,154.05 805.9,173.85 816.22,173.85 816.22,154.05 "
       id="polygon342" />
    <polygon
       class="cls-4"
       points="713.3,214.82 713.3,214.75 827.66,214.75 827.66,198.16 810.83,198.16 812.56,206.68 736.36,206.68 736.36,198.16 686.93,198.16 686.93,198.19 653.28,198.19 653.28,214.82 "
       id="polygon344" />
    <path
       class="cls-4"
       d="M 713.47,277.57 H 988.65 V 264.35 H 655.91 v 0 h -99.68 a 39.68,39.68 0 0 0 14.92,13.2 h 142.32 z"
       id="path346" />
    <path
       class="cls-4"
       d="M 991.91,286.32 H 649 q 4.11,2.75 4.28,8.74 v 3.26 h 2.63 v 0.18 h 143.7 a 66.5,66.5 0 0 1 46.14,0 h 146.16 z"
       id="path348" />
    <path
       class="cls-4"
       d="M 992.77,308.29 H 863.31 a 66.66,66.66 0 0 1 11.3,11.16 h 118.16 z"
       id="path350" />
    <path
       class="cls-4"
       d="m 655.91,308.45 h -2.63 v 5.31 a 18.49,18.49 0 0 1 -0.68,5.32 h 3.31 v 0.37 h 114.85 a 66.6,66.6 0 0 1 11.29,-11.16 H 655.91 Z"
       id="path352" />
    <path
       class="cls-4"
       d="m 881.86,330.72 a 66.51,66.51 0 0 1 4,9.66 H 1001 v -9.66 z"
       id="path354" />
    <path
       class="cls-4"
       d="M 713.47,330.57 H 547.32 V 334 a 51.2,51.2 0 0 0 0.34,6 h 106.19 v 0.38 h 105.66 a 66.55,66.55 0 0 1 4,-9.66 h -50 z"
       id="path356" />
    <path
       class="cls-4"
       d="m 652.14,374.2 v 0.43 h -88.71 a 47.72,47.72 0 0 0 11.15,6.86 H 686.2 c 0.19,-0.08 0.36,-0.17 0.54,-0.26 h 72.82 a 63.74,63.74 0 0 1 -1.87,-7 z"
       id="path358" />
    <rect
       class="cls-5"
       x="547.14001"
       y="118.7"
       width="457.38"
       height="277.35001"
       id="rect362" />
    <text
       class="cls-7"
       transform="translate(886.85,384.29)"
       id="text370">D<tspan
   class="cls-8"
   x="20.08"
   y="0"
   id="tspan366">C</tspan><tspan
   x="37.43"
   y="0"
   id="tspan368">oE</tspan></text>
  </g>
  <metadata
     id="metadata1268">
    <rdf:RDF>
      <cc:Work
         rdf:about="">
        <dc:title>Logo FMS</dc:title>
      </cc:Work>
    </rdf:RDF>
  </metadata>
</svg>
